<?xml version="1.0" encoding="utf-8"?><svg viewBox="0 0 100 115.341" xmlns="http://www.w3.org/2000/svg" xmlns:xlink="http://www.w3.org/1999/xlink"><style>:root>svg{display:none}:root>svg:target{display:block}</style><svg data-name="002-phone" viewBox="0 0 100 115.341" id="applicationUi" xmlns="http://www.w3.org/2000/svg"><path data-name="Контур 1595" d="M100.001 78.359a22.117 22.117 0 00-.766-5.745 1.72 1.72 0 10-3.32.9 18.767 18.767 0 01.647 4.854 18.109 18.109 0 01-10.594 16.539 1.72 1.72 0 001.427 3.13 21.525 21.525 0 004.652-2.892 33.526 33.526 0 01-51.756 7.878h16.7a8.382 8.382 0 008.372-8.372v-.5a8.471 8.471 0 00-1.644-4.982c-4.883-6.757-4.46-16.846.964-22.97a18.668 18.668 0 012.884-2.636 1.719 1.719 0 00.2-2.6L54.969 48.171a6.758 6.758 0 019.556-9.558l9.242 9.242.008.008 17.314 17.313a18.749 18.749 0 012.179 2.619 1.72 1.72 0 102.834-1.95 22.146 22.146 0 00-2.581-3.1L76.706 45.93V8.249A8.258 8.258 0 0068.459 0H29.601a1.72 1.72 0 100 3.44h38.858a4.814 4.814 0 014.807 4.81v1.77H11.529V8.249a4.815 4.815 0 014.81-4.81h6.383a1.72 1.72 0 000-3.44h-6.383a8.259 8.259 0 00-8.249 8.25v25.642a9.806 9.806 0 00-3.823 17.747A9.807 9.807 0 008.09 69.386v25.391a8.257 8.257 0 008.249 8.247h19.129c.46.515.93 1.013 1.4 1.486A36.977 36.977 0 0099.991 79c.005-.212.009-.425.008-.638zm-26.733-64.9v29.032l-6.309-6.31A10.2 10.2 0 0052.536 50.6L63.98 62.047a21.125 21.125 0 00-6.894 19.118H11.529V13.459zM3.44 43.548a6.381 6.381 0 014.651-6.133V49.68a6.38 6.38 0 01-4.651-6.133zm0 16.181A6.381 6.381 0 018.09 53.6v12.261a6.381 6.381 0 01-4.651-6.133zm8.09 35.048V84.6h46.245a20.965 20.965 0 003.156 6.583 5.055 5.055 0 01.992 2.966v.5a4.937 4.937 0 01-4.932 4.932H16.339a4.814 4.814 0 01-4.81-4.807zm0 0" fill="#fff"/><path data-name="Контур 1596" d="M47.513 90.225H37.241a1.689 1.689 0 000 3.378h10.272a1.689 1.689 0 000-3.378zm0 0" fill="#fff"/></svg><svg viewBox="0 0 39.414 28.828" id="arrow" xmlns="http://www.w3.org/2000/svg"><g data-name="Сгруппировать 328" fill="none" stroke="#3d37f1" stroke-linecap="round" stroke-width="2"><path data-name="Линия 7" d="M1 14.415h37"/><path data-name="Линия 8" d="M26 1.415l12 12"/><path data-name="Линия 9" d="M38 15.415l-12 12"/></g></svg><svg data-name="001-design" viewBox="0 0 75.173 75.173" id="designFeature" xmlns="http://www.w3.org/2000/svg"><path data-name="Контур 1626" d="M69.175 18.394a1.2 1.2 0 001.2-1.2V12h3.6a1.2 1.2 0 001.2-1.2V1.2a1.2 1.2 0 00-1.2-1.2h-9.6a1.2 1.2 0 00-1.2 1.2v3.6H12V1.2A1.2 1.2 0 0010.8 0H1.2A1.2 1.2 0 000 1.2v9.6A1.2 1.2 0 001.2 12h3.6v51.177H1.2a1.2 1.2 0 00-1.2 1.2v9.6a1.2 1.2 0 001.2 1.2h9.6a1.2 1.2 0 001.2-1.2v-3.6h51.178v3.6a1.2 1.2 0 001.2 1.2h9.6a1.2 1.2 0 001.2-1.2v-9.6a1.2 1.2 0 00-1.2-1.2h-3.6V21.993a1.2 1.2 0 10-2.4 0v41.184h-3.6a1.2 1.2 0 00-1.2 1.2v3.6H12v-3.6a1.2 1.2 0 00-1.2-1.2H7.2V12h3.6a1.2 1.2 0 001.2-1.2V7.2h51.178v3.6a1.2 1.2 0 001.2 1.2h3.6v5.2a1.2 1.2 0 001.197 1.194zm-3.6 47.182h7.2v7.2h-7.2zM9.6 72.774H2.4v-7.2h7.2zM9.6 9.6H2.4V2.4h7.2zm55.98-7.2h7.2v7.2h-7.2z" fill="#fff"/><path data-name="Контур 1627" d="M59.179 17.19a1.2 1.2 0 00-1.2-1.2H17.194a1.2 1.2 0 00-1.2 1.2v20.4a1.2 1.2 0 001.2 1.2h40.785a1.2 1.2 0 001.2-1.2zm-40.785 1.945l16.51 8.255-16.51 8.255zm3.882-.741h30.618l-15.311 7.655zm15.311 10.337l15.307 7.659H22.275zm2.682-1.341l16.511-8.255v16.51z" fill="#fff"/><path data-name="Контур 1628" d="M35.187 56.78H17.194a1.2 1.2 0 100 2.4h17.994a1.2 1.2 0 100-2.4z" fill="#fff"/><path data-name="Контур 1629" d="M57.979 56.78H39.986a1.2 1.2 0 100 2.4H57.98a1.2 1.2 0 100-2.4z" fill="#fff"/><path data-name="Контур 1630" d="M35.187 51.682H17.194a1.2 1.2 0 000 2.4h17.994a1.2 1.2 0 000-2.4z" fill="#fff"/><path data-name="Контур 1631" d="M57.979 51.682H39.986a1.2 1.2 0 000 2.4H57.98a1.2 1.2 0 000-2.4z" fill="#fff"/><path data-name="Контур 1632" d="M35.187 46.583H17.194a1.2 1.2 0 100 2.4h17.994a1.2 1.2 0 100-2.4z" fill="#fff"/><path data-name="Контур 1633" d="M57.979 46.583H39.986a1.2 1.2 0 100 2.4H57.98a1.2 1.2 0 100-2.4z" fill="#fff"/><path data-name="Контур 1634" d="M57.979 41.485H17.194a1.2 1.2 0 100 2.4h40.785a1.2 1.2 0 100-2.4z" fill="#fff"/></svg><svg data-name="004-app" viewBox="0 0 100 105.978" id="mobileUi" xmlns="http://www.w3.org/2000/svg"><path data-name="Контур 1603" d="M65.392 102.659H16.663A13.349 13.349 0 013.318 89.336V40.618a1.66 1.66 0 00-3.319 0v48.717a16.671 16.671 0 0016.664 16.642h48.729a1.66 1.66 0 100-3.319zm0 0" fill="#fff"/><path data-name="Контур 1604" d="M100 24.8a24.716 24.716 0 00-3.754-13.119 1.553 1.553 0 10-2.633 1.646 21.748 21.748 0 11-4.626-5.267 1.554 1.554 0 101.974-2.4A24.853 24.853 0 0053.6 12.5H15.589A15.6 15.6 0 000 28.075V37.5a1.552 1.552 0 103.1 0v-9.425A12.489 12.489 0 0115.589 15.61H52.1a24.823 24.823 0 0035.738 30.516v44.282a12.489 12.489 0 01-12.485 12.465h-6.887a1.552 1.552 0 100 3.1h6.887a15.6 15.6 0 0015.59-15.569v-46.46A24.75 24.75 0 00100 24.8zm0 0" fill="#fff"/><path data-name="Контур 1605" d="M75.166 38.507a1.66 1.66 0 001.659-1.659v-20.67a1.66 1.66 0 00-2.777-1.227l-3.556 3.238a1.66 1.66 0 002.234 2.454l.78-.71v16.915a1.659 1.659 0 001.659 1.659zm0 0" fill="#fff"/><path data-name="Контур 1606" d="M17.937 88.971a1.156 1.156 0 001.265-.758l1.4-4.889h8.424l1.419 4.9q.261.745 1.343.745a3.316 3.316 0 001.694-.466 1.321 1.321 0 00.8-1.111 1.168 1.168 0 00-.068-.322l-6.786-22.176q-.437-1.147-2.473-1.147-2 0-2.436 1.231l-6.803 22.187a1.017 1.017 0 00-.035.308 1.263 1.263 0 00.718 1.06 2.88 2.88 0 001.539.443zm6.858-20.266l3.436 11.745h-6.8zm0 0" fill="#fff"/><path data-name="Контур 1607" d="M36.985 88.968a2.416 2.416 0 001.285-.325.986.986 0 00.531-.873v-8.453h4.249a8.244 8.244 0 005.6-1.83q2.108-1.83 2.108-5.732v-.273q0-3.9-2.04-5.715a7.925 7.925 0 00-5.466-1.814h-6.683a1.491 1.491 0 00-1.011.342 1.052 1.052 0 00-.394.821v22.655a.983.983 0 00.549.873 2.437 2.437 0 001.268.325zm1.817-21.8h4.249a4.009 4.009 0 013.016 1.095 4.6 4.6 0 011.062 3.32v.41a4.666 4.666 0 01-1.062 3.337 3.974 3.974 0 01-3.016 1.112h-4.249zm0 0" fill="#fff"/><path data-name="Контур 1608" d="M68.031 71.48q0-3.9-2.039-5.714a7.926 7.926 0 00-5.466-1.814h-6.683a1.485 1.485 0 00-1.011.342 1.052 1.052 0 00-.394.821V87.77a.982.982 0 00.548.873 2.671 2.671 0 002.554 0 .985.985 0 00.531-.873v-8.453h4.25a8.246 8.246 0 005.6-1.83q2.107-1.83 2.107-5.732zm-3.632.513a4.667 4.667 0 01-1.063 3.337 3.971 3.971 0 01-3.015 1.112h-4.25v-9.274h4.25a4.005 4.005 0 013.015 1.095 4.6 4.6 0 011.063 3.319zm0 0" fill="#fff"/></svg><svg data-name="003-paint" viewBox="0 0 100 108.117" id="reDesign" xmlns="http://www.w3.org/2000/svg"><path data-name="Контур 1597" d="M96.127 5.265H83.212a1.66 1.66 0 000 3.319h12.915a.554.554 0 01.553.553v65.014a1.66 1.66 0 103.319 0V9.138a3.875 3.875 0 00-3.872-3.872zm0 0" fill="#fff"/><path data-name="Контур 1598" d="M98.416 76.087a1.584 1.584 0 00-1.584 1.584v21.364a5.915 5.915 0 11-11.829 0V63.807a9.082 9.082 0 00-18.164 0v10.712a5.915 5.915 0 01-11.829 0v-7.905l8.061-8.062a4.281 4.281 0 001.123-4.063L83.622 35.06a4.29 4.29 0 000-6.06L62.814 8.193h14.265a1.584 1.584 0 100-3.168H59.647l-3.773-3.772a4.29 4.29 0 00-6.06 0L30.388 20.679a4.319 4.319 0 00-1.035-.13 4.257 4.257 0 00-3.03 1.255l-8.4 8.4a4.289 4.289 0 000 6.059l11.141 11.148a89.075 89.075 0 01-17.085 12.921 26.78 26.78 0 00-5.316 4.153 23.771 23.771 0 00-6.117 9.758c-1.06 3.641-.564 6.727 1.4 8.688a7.1 7.1 0 005.174 1.95c3.036 0 6.665-1.373 10.223-4.029a1.584 1.584 0 10-1.895-2.538c-4.528 3.379-9.265 4.379-11.266 2.379-1.09-1.091-1.307-3.118-.6-5.563a20.571 20.571 0 015.316-8.4 23.549 23.549 0 014.683-3.663A92.247 92.247 0 0031.3 49.651l3.921 3.92a92.245 92.245 0 00-13.409 17.718 22.318 22.318 0 01-1.72 2.5 1.584 1.584 0 002.486 1.963 25.362 25.362 0 001.964-2.853A89.092 89.092 0 0137.464 55.81l11.144 11.144a4.253 4.253 0 003.03 1.255c.068 0 .136-.007.2-.01v6.32a9.082 9.082 0 0018.164 0V63.807a5.915 5.915 0 0111.829 0v35.228a9.082 9.082 0 1018.164 0V77.671a1.584 1.584 0 00-1.585-1.584zM52.054 3.492a1.118 1.118 0 011.58 0l27.748 27.749a1.117 1.117 0 010 1.579L62.39 51.811l-7.408-7.412 3.209-3.2a1.584 1.584 0 10-2.24-2.24l-3.21 3.209-11.216-11.222 3.21-3.209a1.584 1.584 0 00-2.24-2.24l-3.21 3.209-1.706-1.707 12.63-12.63a1.584 1.584 0 00-2.24-2.24L35.338 24.76l-2.276-2.276zm-1.206 61.223L20.159 34.027a1.118 1.118 0 010-1.58l8.4-8.4a1.116 1.116 0 011.58 0l30.692 30.685a1.118 1.118 0 010 1.58l-8.4 8.4a1.116 1.116 0 01-1.58 0zm0 0" fill="#fff"/><path data-name="Контур 1599" d="M30.996 36.545a1.66 1.66 0 00-2.347 2.346l17.554 17.554a1.66 1.66 0 102.346-2.347zm0 0" fill="#fff"/><path data-name="Контур 1600" d="M88.929 38.435h-.017a1.668 1.668 0 10.017 0zm0 0" fill="#fff"/><path data-name="Контур 1601" d="M90.296 42.758a1.66 1.66 0 00.037 3.319h.022a1.66 1.66 0 00-.021-3.319h-.021zm0 0" fill="#fff"/><path data-name="Контур 1602" d="M80.86 47.63a1.668 1.668 0 10.017 0zm0 0" fill="#fff"/></svg><svg data-name="002-sketchbook" viewBox="0 0 74.721 81.891" id="sketchFeature" xmlns="http://www.w3.org/2000/svg"><path data-name="Контур 1635" d="M70.777 5.007h-4.524a3.949 3.949 0 00-3.945 3.945v58.58a6.91 6.91 0 00.337 2.132l3.375 10.413a2.623 2.623 0 004.99 0l3.375-10.413a6.909 6.909 0 00.337-2.132V8.951a3.949 3.949 0 00-3.945-3.944zm1.381 63.732c-.1.356.039-.107-1.849 5.72a8.585 8.585 0 00-3.587 0c-1.747-5.392-1.79-5.505-1.85-5.722-.005-.015 7.288-.006 7.285.002zm-3.431 10.6a.2.2 0 01-.213.154.2.2 0 01-.206-.136c-.076-.208.242.749-.842-2.6a6.212 6.212 0 012.1 0zm-.212-52.8a1.2 1.2 0 00-1.2 1.2v38.6h-2.608V13.99h2.608v8.144a1.2 1.2 0 102.4 0V13.99h2.608v52.342h-2.608v-38.6a1.2 1.2 0 00-1.201-1.199zM64.708 8.958a1.547 1.547 0 011.545-1.545h4.524a1.547 1.547 0 011.545 1.545v2.639h-7.615z" fill="#fff"/><path data-name="Контур 1636" d="M53.614 5.007H51.94V3.576a3.576 3.576 0 10-7.153 0v1.431h-2.8V3.576a3.576 3.576 0 00-7.153 0v1.431h-2.8V3.576a3.576 3.576 0 10-7.153 0v1.431h-2.794V3.576a3.576 3.576 0 10-7.153 0v1.431h-2.8V3.576a3.576 3.576 0 10-7.153 0v1.431H3.302a3.306 3.306 0 00-3.3 3.3v6.1a1.2 1.2 0 002.4 0v-6.1a.9.9 0 01.9-.9h1.674v1.43a3.576 3.576 0 107.153 0V7.406h2.8v1.431a3.576 3.576 0 107.153 0V7.406h2.8v1.431a3.576 3.576 0 107.153 0V7.406h2.8v1.431a3.576 3.576 0 107.153 0V7.406h2.8v1.431a3.576 3.576 0 107.153 0V7.406h1.674a.9.9 0 01.9.9v70.282a.9.9 0 01-.9.9H3.302a.9.9 0 01-.9-.9V20.01a1.2 1.2 0 10-2.4 0v58.579a3.306 3.306 0 003.3 3.3h50.312a3.306 3.306 0 003.3-3.3V8.309a3.306 3.306 0 00-3.3-3.302zM9.73 8.837a1.177 1.177 0 11-2.355 0V3.576a1.177 1.177 0 112.355 0zm9.953 0a1.177 1.177 0 11-2.355 0V3.576a1.177 1.177 0 112.355 0v5.26zm9.953 0a1.177 1.177 0 11-2.355 0V3.576a1.177 1.177 0 112.355 0v5.26zm9.953 0a1.177 1.177 0 11-2.355 0V3.576a1.177 1.177 0 112.355 0zm9.952 0a1.177 1.177 0 11-2.355 0V3.576a1.177 1.177 0 112.355 0z" fill="#fff"/><path data-name="Контур 1637" d="M28.083 22.52a1.2 1.2 0 00-1.7 0l-5.575 5.574a9.307 9.307 0 006.582 15.89h6.54a6.91 6.91 0 014.885 11.794 1.202 1.202 0 101.7 1.7l5.574-5.574a9.306 9.306 0 00-6.582-15.89h-6.54a6.91 6.91 0 01-4.885-11.794 1.2 1.2 0 00.001-1.7zm4.885 15.89h6.54a6.91 6.91 0 014.885 11.794l-1.136 1.136a9.311 9.311 0 00-9.323-9.755h-6.54a6.91 6.91 0 01-4.885-11.794l1.136-1.136a9.311 9.311 0 009.323 9.755z" fill="#fff"/><path data-name="Контур 1638" d="M16.059 39.628a1.2 1.2 0 10-1.7-1.69l-4.142 4.142a7.232 7.232 0 005.115 12.349h10.54a4.835 4.835 0 013.418 8.253 1.202 1.202 0 001.7 1.7l4.148-4.148a7.232 7.232 0 00-5.115-12.348h-2.375a1.2 1.2 0 000 2.4h2.369a4.835 4.835 0 013.418 8.253l-.329.329a7.212 7.212 0 00-7.238-6.833H15.329a4.835 4.835 0 01-3.418-8.253l.329-.329a7.212 7.212 0 007.238 6.833h2.415a1.2 1.2 0 100-2.4h-2.415a4.836 4.836 0 01-3.418-8.253z" fill="#fff"/></svg><svg data-name="003-test" viewBox="0 0 72.774 81.891" id="testFeature" xmlns="http://www.w3.org/2000/svg"><path data-name="Контур 1639" d="M12.6 18.49v-2.535a1.2 1.2 0 100-2.4h-1.2a10.208 10.208 0 00-10.2 10.2v10.476a1.2 1.2 0 100 2.4h1.2a1.2 1.2 0 001.2-1.2V23.752a7.809 7.809 0 016.6-7.7v2.443A5.406 5.406 0 006 23.752v34.067c0 2.427 1.633 5.933 4.2 6.8v1.32a1.2 1.2 0 002.4 0v-1.32c2.565-.865 4.2-4.372 4.2-6.8V23.752a5.406 5.406 0 00-4.2-5.262zm1.8 39.33c0 1.9-1.551 4.6-3 4.6s-3-2.7-3-4.6V23.752a3 3 0 016 0zm0 0" fill="#fff"/><path data-name="Контур 1640" d="M71.018 1.756A5.961 5.961 0 0066.777 0H25.193a6 6 0 00-6 6v69.9a1.2 1.2 0 002.4 0V6a3.611 3.611 0 013.6-3.6h41.585a3.613 3.613 0 013.6 3.6v69.9a3.613 3.613 0 01-3.6 3.6H25.193a3.6 3.6 0 01-1.945-.569 1.184 1.184 0 00-.65-.192 1.2 1.2 0 00-.649 2.209 5.974 5.974 0 003.242.952h41.587a6 6 0 006-6V6a5.961 5.961 0 00-1.756-4.242zm0 0" fill="#fff"/><path data-name="Контур 1641" d="M27.671 12.637a1.2 1.2 0 00-1.2 1.2v3.2a1.2 1.2 0 002.048.848l9.6-9.6a1.202 1.202 0 00-1.7-1.7l-7.548 7.552v-.3a1.2 1.2 0 00-1.2-1.2zm0 0" fill="#fff"/><path data-name="Контур 1642" d="M26.471 55.423a1.2 1.2 0 002.048.848l9.6-9.6a1.202 1.202 0 00-1.7-1.7l-7.548 7.552v-.3a1.2 1.2 0 10-2.4 0zm0 0" fill="#fff"/><path data-name="Контур 1643" d="M42.065 8.638h22.392a1.2 1.2 0 100-2.4H42.065a1.2 1.2 0 100 2.4zm0 0" fill="#fff"/><path data-name="Контур 1644" d="M42.065 13.436h22.392a1.2 1.2 0 100-2.4H42.065a1.2 1.2 0 100 2.4zm0 0" fill="#fff"/><path data-name="Контур 1645" d="M42.065 18.234H56.3a1.2 1.2 0 100-2.4H42.065a1.2 1.2 0 100 2.4zm0 0" fill="#fff"/><path data-name="Контур 1646" d="M26.471 36.231a1.2 1.2 0 001.2 1.2h9.6a1.2 1.2 0 001.2-1.2v-9.6a1.2 1.2 0 00-1.2-1.2h-9.6a1.2 1.2 0 00-1.2 1.2zm7.694-4.8l1.9-1.9v3.8zm.206 3.6h-3.8l1.9-1.9zm-1.9-5.295l-1.9-1.9h3.8zm-1.7 1.7l-1.9 1.9v-3.8zm0 0" fill="#fff"/><path data-name="Контур 1647" d="M42.065 27.831h22.392a1.2 1.2 0 100-2.4H42.065a1.2 1.2 0 100 2.4zm0 0" fill="#fff"/><path data-name="Контур 1648" d="M42.065 32.629h19.193a1.2 1.2 0 000-2.4H42.065a1.2 1.2 0 100 2.4zm0 0" fill="#fff"/><path data-name="Контур 1649" d="M42.065 47.024h22.392a1.2 1.2 0 100-2.4H42.065a1.2 1.2 0 100 2.4zm0 0" fill="#fff"/><path data-name="Контур 1650" d="M42.065 51.822h22.392a1.2 1.2 0 100-2.4H42.065a1.2 1.2 0 100 2.4zm0 0" fill="#fff"/><path data-name="Контур 1651" d="M42.065 56.621h9.437a1.2 1.2 0 000-2.4h-9.437a1.2 1.2 0 000 2.4zm0 0" fill="#fff"/><path data-name="Контур 1652" d="M26.471 74.617a1.2 1.2 0 001.2 1.2h9.6a1.2 1.2 0 001.2-1.2v-9.6a1.2 1.2 0 00-1.2-1.2h-9.6a1.2 1.2 0 00-1.2 1.2zm2.4-8.4h7.2v7.2h-7.2zm0 0" fill="#fff"/><path data-name="Контур 1653" d="M42.065 66.217h22.392a1.2 1.2 0 000-2.4H42.065a1.2 1.2 0 000 2.4zm0 0" fill="#fff"/><path data-name="Контур 1654" d="M42.065 71.016h22.392a1.2 1.2 0 000-2.4H42.065a1.2 1.2 0 000 2.4zm0 0" fill="#fff"/><path data-name="Контур 1655" d="M42.065 75.814h17.754a1.2 1.2 0 000-2.4H42.065a1.2 1.2 0 100 2.4zm0 0" fill="#fff"/></svg><svg viewBox="0 0 30.289 30.967" id="wavingHand" xmlns="http://www.w3.org/2000/svg"><g data-name="Сгруппировать 340"><g data-name="Сгруппировать 339"><path data-name="Контур 1556" d="M23.977 4.683a14.629 14.629 0 00-3.4-4.566.454.454 0 00-.609.673 13.719 13.719 0 013.19 4.282.454.454 0 00.82-.389z" fill="#fff"/></g></g><g data-name="Сгруппировать 342"><g data-name="Сгруппировать 341"><path data-name="Контур 1557" d="M21.417 5.359a12.04 12.04 0 00-2.22-2.986.454.454 0 10-.636.647 11.128 11.128 0 012.053 2.761.454.454 0 10.8-.422z" fill="#fff"/></g></g><g data-name="Сгруппировать 344"><g data-name="Сгруппировать 343"><path data-name="Контур 1558" d="M4.048 19.281a13.715 13.715 0 01-3.184-4.282.454.454 0 00-.82.389 14.628 14.628 0 003.4 4.566.454.454 0 10.609-.673z" fill="#fff"/></g></g><g data-name="Сгруппировать 346"><g data-name="Сгруппировать 345"><path data-name="Контур 1559" d="M5.46 17.049a11.13 11.13 0 01-2.053-2.761.454.454 0 10-.8.422 12.041 12.041 0 002.22 2.986.454.454 0 00.636-.648z" fill="#fff"/></g></g><g data-name="Сгруппировать 348"><g data-name="Сгруппировать 347"><path data-name="Контур 1560" d="M29.889 22.489l-.808-1.087a7.56 7.56 0 00.3-3.105c-.2-1.679-.722-1.942-.888-2.909-.406-2.37.688-5.622.911-6.249l.017-.049c.478-1.51.793-2.508-.728-3.24-1.361-.655-2.793-.073-3.648 1.481a16.951 16.951 0 00-1.621 4.865l-5.6-7.53a.454.454 0 00-.728.541l6.265 8.426a.454.454 0 00.816-.228 15.943 15.943 0 011.663-5.637c.233-.424 1.1-1.755 2.46-1.1.859.413.7.653.249 2.166-.332.934-1.384 4.179-.951 6.707.208 1.213.692 1.284.881 2.864a6.354 6.354 0 01-.068 1.925 3.794 3.794 0 01-.822 1.573.455.455 0 00.7.58c.086-.1.165-.206.238-.307l.635.854a1.123 1.123 0 01-.231 1.569l-.954.71a.454.454 0 00.271.818c.256 0 .3-.144 1.225-.8a2.031 2.031 0 00.416-2.838z" fill="#fff"/></g></g><g data-name="Сгруппировать 350"><g data-name="Сгруппировать 349"><path data-name="Контур 1561" d="M26.909 26.673a.453.453 0 00-.635-.093l-4.38 3.257a1.135 1.135 0 01-1.586-.233 4.3 4.3 0 00-2.291-1.83 7.649 7.649 0 01-4.117-3.372.454.454 0 00-.728.541 8.487 8.487 0 004.587 3.7 3.485 3.485 0 011.821 1.5 2.043 2.043 0 002.855.42l4.38-3.257a.454.454 0 00.094-.633z" fill="#fff"/></g></g><g data-name="Сгруппировать 353"><g data-name="Сгруппировать 352"><g data-name="Сгруппировать 351" fill="#fff"><path data-name="Контур 1562" d="M5.88 15.135z"/><path data-name="Контур 1564" d="M18.857 12.308l-5.959-8.015a1.412 1.412 0 01.4-2.049 1.441 1.441 0 011.888.4l.646.868a.454.454 0 00.728-.541l-.646-.868a2.326 2.326 0 00-4.118.733 2.322 2.322 0 00-4.028 1.163 2.3 2.3 0 00.319 1.59 2.326 2.326 0 00-1.877 3.73l.71.955a2.326 2.326 0 00-1.878 3.734l.835 1.123.014.019-.01-.014.013.017 6.016 8.087a.454.454 0 00.728-.541L5.77 13.465a1.415 1.415 0 011.252-2.277 1.394 1.394 0 01.991.563l4.128 5.552a.454.454 0 00.728-.541L6.933 8.778a1.436 1.436 0 01.185-1.94 1.411 1.411 0 012.057.225l5.6 7.534a.454.454 0 00.728-.541L8.926 5.208a1.411 1.411 0 01.321-2 1.443 1.443 0 011.97.346l6.912 9.3a.454.454 0 00.728-.541zM5.894 15.153z"/></g></g></g></svg><svg data-name="006-domain-registration" viewBox="0 0 100 90.426" id="webAppUi" xmlns="http://www.w3.org/2000/svg"><path data-name="Контур 1613" d="M98.4 0H1.6A1.6 1.6 0 000 1.6v87.23a1.6 1.6 0 001.6 1.6h96.8a1.6 1.6 0 001.6-1.6V71.809a1.6 1.6 0 00-3.191 0v15.426H3.191V15.957h93.618v49.469a1.6 1.6 0 003.191 0V1.6A1.6 1.6 0 0098.4 0zM3.191 3.191h59.043v9.574H3.191zm62.234 9.574V3.191h31.384v9.574z" fill="#fff"/><path data-name="Контур 1614" d="M81.127 6.527a1.77 1.77 0 101.77 1.77 1.772 1.772 0 00-1.77-1.77z" fill="#fff"/><path data-name="Контур 1615" d="M72.415 6.527a1.77 1.77 0 101.77 1.77 1.772 1.772 0 00-1.77-1.77z" fill="#fff"/><path data-name="Контур 1616" d="M89.491 6.527a1.77 1.77 0 101.77 1.77 1.772 1.772 0 00-1.77-1.77z" fill="#fff"/><path data-name="Контур 1617" d="M32.044 43.682a1.659 1.659 0 001.384-1.17l3.817-12.742a1.66 1.66 0 00-3.179-.952l-2.738 9.139-2.639-4.4a1.659 1.659 0 00-2.847 0l-2.639 4.4-2.737-9.137a1.66 1.66 0 00-3.179.952l3.817 12.74a1.659 1.659 0 003.013.377l3.149-5.256 3.149 5.256a1.66 1.66 0 001.629.793z" fill="#fff"/><path data-name="Контур 1618" d="M43.737 43.68a1.659 1.659 0 001.629-.794l3.149-5.256 3.149 5.256a1.659 1.659 0 003.013-.377l3.817-12.742a1.66 1.66 0 00-3.179-.952l-2.738 9.139-2.639-4.4a1.659 1.659 0 00-2.847 0l-2.639 4.4-2.737-9.137a1.66 1.66 0 00-3.179.952l3.817 12.741a1.66 1.66 0 001.384 1.17z" fill="#fff"/><path data-name="Контур 1619" d="M78.631 27.701a1.66 1.66 0 00-2.066 1.113l-2.738 9.138-2.639-4.4a1.659 1.659 0 00-2.847 0l-2.639 4.4-2.737-9.137a1.66 1.66 0 10-3.179.952l3.817 12.74a1.659 1.659 0 003.013.377l3.149-5.256 3.149 5.256a1.659 1.659 0 003.013-.377l3.817-12.742a1.659 1.659 0 00-1.113-2.064z" fill="#fff"/><path data-name="Контур 1620" d="M29.459 52.113a1.659 1.659 0 00-1.659-1.659h-8.85a1.659 1.659 0 00-1.659 1.659v8.85a1.659 1.659 0 001.659 1.659h8.85a1.659 1.659 0 001.659-1.659zm-3.318 7.194H20.61v-5.531h5.531z" fill="#fff"/><path data-name="Контур 1621" d="M27.8 64.661h-8.85a1.659 1.659 0 00-1.659 1.659v8.85a1.659 1.659 0 001.659 1.659h8.85a1.659 1.659 0 001.659-1.659v-8.85a1.659 1.659 0 00-1.659-1.659zm-1.659 8.853H20.61v-5.531h5.531z" fill="#fff"/><path data-name="Контур 1622" d="M78.047 54.93H71.41a1.66 1.66 0 000 3.319h6.637a1.66 1.66 0 000-3.319z" fill="#fff"/><path data-name="Контур 1623" d="M65.897 54.93H33.256a1.66 1.66 0 100 3.319h32.641a1.66 1.66 0 100-3.319z" fill="#fff"/><path data-name="Контур 1624" d="M78.047 69.802H71.41a1.66 1.66 0 000 3.319h6.637a1.66 1.66 0 000-3.319z" fill="#fff"/><path data-name="Контур 1625" d="M65.897 69.802H33.256a1.66 1.66 0 100 3.319h32.641a1.66 1.66 0 100-3.319z" fill="#fff"/></svg><svg data-name="005-repair" viewBox="0 0 100 100" id="webElements" xmlns="http://www.w3.org/2000/svg"><path data-name="Контур 1609" d="M14.411 6.921a5.251 5.251 0 105.25 5.25 5.257 5.257 0 00-5.25-5.25zm0 7.15a1.9 1.9 0 111.9-1.9 1.9 1.9 0 01-1.9 1.904zm0 0" fill="#fff"/><path data-name="Контур 1610" d="M25.486 6.921a5.251 5.251 0 105.25 5.251 5.257 5.257 0 00-5.25-5.251zm0 7.15a1.9 1.9 0 111.9-1.9 1.9 1.9 0 01-1.9 1.904zm0 0" fill="#fff"/><path data-name="Контур 1611" d="M37.744 6.921a5.251 5.251 0 105.25 5.251 5.257 5.257 0 00-5.25-5.251zm0 7.15a1.9 1.9 0 111.9-1.9 1.9 1.9 0 01-1.9 1.904zm0 0" fill="#fff"/><path data-name="Контур 1612" d="M94.576 0H5.423A5.43 5.43 0 000 5.424V70.71a5.43 5.43 0 005.424 5.424h9.543a1.479 1.479 0 00.121 1.955l7.106 7.111a30.327 30.327 0 00-1.4 3.364H10.749a1.479 1.479 0 00-1.479 1.475v8.482A1.479 1.479 0 0010.749 100H39.94a1.479 1.479 0 001.479-1.479 8.185 8.185 0 1116.37 0 1.479 1.479 0 001.48 1.479h29.192a1.479 1.479 0 001.479-1.479v-8.482a1.479 1.479 0 00-1.479-1.479h-10.05a30.326 30.326 0 00-1.4-3.364l7.108-7.108a1.48 1.48 0 00.12-1.955h10.336A5.43 5.43 0 00100 70.71v-36.6a1.479 1.479 0 10-2.958 0v36.6a2.468 2.468 0 01-2.466 2.465H81.3l-8.719-8.719V54.339A1.48 1.48 0 0071.1 52.86h-2.659v-9.116l2.087-1.927a1.479 1.479 0 00.41-1.526l-3.55-11.44a1.48 1.48 0 00-1.413-1.041H62.03a1.48 1.48 0 00-1.413 1.041l-3.55 11.44a1.479 1.479 0 00.41 1.526l2.088 1.927v9.116H56.9a1.479 1.479 0 00-1.479 1.479v3.846H43.786v-2.247l5.681-5.681a1.479 1.479 0 00.433-1.046V37.08a1.478 1.478 0 00-.44-1.052l-7.889-7.791a1.479 1.479 0 00-2.519 1.052v13.188L35.206 44.9l-3.846-2.423v-.843a1.48 1.48 0 10-2.959 0v1.659a1.479 1.479 0 00.691 1.252l5.326 3.355a1.478 1.478 0 001.576 0l5.325-3.353a1.479 1.479 0 00.691-1.252V32.829l4.932 4.871v10.9l-5.681 5.681a1.479 1.479 0 00-.433 1.047v2.889a1.48 1.48 0 00-1.183 1.45v10.05a30.334 30.334 0 00-3.365 1.395l-6.695-6.695v-9.092a1.479 1.479 0 00-.433-1.047L23.471 48.6V37.7l4.929-4.871v1.876a1.48 1.48 0 002.959 0V29.29a1.48 1.48 0 00-2.519-1.053l-7.89 7.791a1.478 1.478 0 00-.439 1.052v12.131a1.479 1.479 0 00.433 1.046l5.681 5.681v8.518l-8.719 8.719H5.423a2.467 2.467 0 01-2.465-2.465V21.5h94.083v5.724a1.48 1.48 0 002.959 0v-21.8A5.43 5.43 0 0094.576 0zM62.048 42.01l-1.878-1.734 2.951-9.507h1.765l2.95 9.507-1.877 1.734a1.481 1.481 0 00-.476 1.087v9.763h-2.958V43.1a1.481 1.481 0 00-.477-1.087zm7.577 13.808v8.6L62.93 71.11a30.487 30.487 0 00-3.365-1.4V59.665a1.48 1.48 0 00-1.183-1.45v-2.4h11.243zM36.69 74.221a27.4 27.4 0 014.866-2.021 1.48 1.48 0 001.044-1.412v-9.644h14v9.644a1.48 1.48 0 001.054 1.412 27.4 27.4 0 014.866 2.018 1.48 1.48 0 001.742-.259l6.821-6.821 8.559 8.56 1.341 1.34-6.821 6.821a1.48 1.48 0 00-.259 1.742 27.35 27.35 0 012.018 4.866 1.479 1.479 0 001.414 1.047h9.644v5.523H71.942A22.4 22.4 0 0040.5 78.062a1.48 1.48 0 001.2 2.7 19.44 19.44 0 0127.277 16.279h-8.326a11.145 11.145 0 00-22.092 0h-8.327a19.219 19.219 0 016.087-12.7 1.479 1.479 0 00-2.019-2.153 22.482 22.482 0 00-7.03 14.853H12.228v-5.523h9.644a1.48 1.48 0 001.415-1.047 27.351 27.351 0 012.018-4.866 1.48 1.48 0 00-.259-1.742l-6.821-6.821 1.341-1.34 8.559-8.56 6.821 6.821a1.48 1.48 0 001.742.259zM2.958 18.54V5.424a2.468 2.468 0 012.465-2.465h89.153a2.468 2.468 0 012.465 2.465V18.54zm0 0" fill="#fff"/></svg><svg data-name="001-data" viewBox="0 0 100 99.892" id="websiteUi" xmlns="http://www.w3.org/2000/svg"><path data-name="Контур 1565" d="M13.045 37.536a1.658 1.658 0 102.345-2.345l-4.026-4.026 4.024-4.029a1.658 1.658 0 00-2.345-2.345l-5.2 5.2a1.658 1.658 0 000 2.345zm0 0" fill="#fff"/><path data-name="Контур 1566" d="M26.33 31.161l-4.026 4.026a1.658 1.658 0 102.345 2.345l5.2-5.2a1.657 1.657 0 000-2.344l-5.2-5.2a1.658 1.658 0 10-2.344 2.345zm0 0" fill="#fff"/><path data-name="Контур 1567" d="M17.959 37.903a1.658 1.658 0 002.149-.937l4.083-10.4a1.657 1.657 0 10-3.085-1.213l-4.084 10.4a1.658 1.658 0 00.937 2.15zm0 0" fill="#fff"/><path data-name="Контур 1568" d="M9.958 45.669h11.169a1.658 1.658 0 000-3.316H9.958a1.658 1.658 0 000 3.316zm0 0" fill="#fff"/><path data-name="Контур 1569" d="M43.088 42.352H23.457a1.658 1.658 0 000 3.316h19.631a1.658 1.658 0 100-3.316zm0 0" fill="#fff"/><path data-name="Контур 1570" d="M9.958 51.817h4.758a1.658 1.658 0 000-3.316H9.958a1.658 1.658 0 000 3.316zm0 0" fill="#fff"/><path data-name="Контур 1571" d="M35.932 48.501a1.658 1.658 0 000 3.316h2.9a1.658 1.658 0 100-3.316zm0 0" fill="#fff"/><path data-name="Контур 1572" d="M33.803 50.158a1.658 1.658 0 00-1.658-1.658h-14.23a1.658 1.658 0 000 3.316h14.23a1.658 1.658 0 001.658-1.658zm0 0" fill="#fff"/><path data-name="Контур 1573" d="M41.273 50.158a1.658 1.658 0 001.658 1.658h5.426a1.658 1.658 0 100-3.316h-5.426a1.658 1.658 0 00-1.658 1.658zm0 0" fill="#fff"/><path data-name="Контур 1574" d="M33.591 32.258h5.724a1.658 1.658 0 100-3.316h-5.724a1.658 1.658 0 100 3.316zm0 0" fill="#fff"/><path data-name="Контур 1575" d="M41.761 32.258h34.924a1.658 1.658 0 000-3.316H41.761a1.658 1.658 0 100 3.316zm0 0" fill="#fff"/><path data-name="Контур 1576" d="M71.11 35.355H56.963a1.658 1.658 0 000 3.316H71.11a1.658 1.658 0 000-3.316zm0 0" fill="#fff"/><path data-name="Контур 1577" d="M53.729 35.355h-4.863a1.658 1.658 0 000 3.316h4.863a1.658 1.658 0 000-3.316zm0 0" fill="#fff"/><path data-name="Контур 1578" d="M33.297 38.672H45.21a1.658 1.658 0 000-3.316H33.297a1.658 1.658 0 100 3.316zm0 0" fill="#fff"/><path data-name="Контур 1579" d="M31.833 54.597H20.661a1.658 1.658 0 100 3.315h11.168a1.658 1.658 0 100-3.315zm0 0" fill="#fff"/><path data-name="Контур 1580" d="M18.538 54.597h-8.58a1.658 1.658 0 100 3.315h8.58a1.658 1.658 0 100-3.315zm0 0" fill="#fff"/><path data-name="Контур 1581" d="M49.63 54.597H35.041a1.658 1.658 0 100 3.315H49.63a1.658 1.658 0 100-3.315zm0 0" fill="#fff"/><path data-name="Контур 1582" d="M66.28 47.109h-7.982a1.658 1.658 0 000 3.316h7.978a1.658 1.658 0 000-3.316zm0 0" fill="#fff"/><path data-name="Контур 1583" d="M75.325 50.425h11.266a1.658 1.658 0 100-3.316H75.325a1.658 1.658 0 000 3.316zm0 0" fill="#fff"/><path data-name="Контур 1584" d="M73.236 47.109h-2.581a1.658 1.658 0 100 3.316h2.581a1.658 1.658 0 000-3.316zm0 0" fill="#fff"/><path data-name="Контур 1585" d="M58.302 66.31h7.978a1.658 1.658 0 100-3.315h-7.978a1.658 1.658 0 100 3.315zm0 0" fill="#fff"/><path data-name="Контур 1586" d="M75.325 66.31h11.266a1.658 1.658 0 100-3.315H75.325a1.658 1.658 0 100 3.315zm0 0" fill="#fff"/><path data-name="Контур 1587" d="M70.655 66.31h2.583a1.658 1.658 0 100-3.315h-2.581a1.658 1.658 0 100 3.315zm0 0" fill="#fff"/><path data-name="Контур 1588" d="M66.28 78.88h-7.982a1.658 1.658 0 100 3.315h7.978a1.658 1.658 0 000-3.315zm0 0" fill="#fff"/><path data-name="Контур 1589" d="M86.591 78.88H75.325a1.658 1.658 0 100 3.315h11.266a1.658 1.658 0 100-3.315zm0 0" fill="#fff"/><path data-name="Контур 1590" d="M73.236 78.88h-2.581a1.658 1.658 0 100 3.315h2.581a1.658 1.658 0 000-3.315zm0 0" fill="#fff"/><path data-name="Контур 1591" d="M93.559 0H6.441A6.449 6.449 0 000 6.441v70.815A6.449 6.449 0 006.441 83.7h5.508a1.464 1.464 0 100-2.927H6.441a3.518 3.518 0 01-3.514-3.514V71.7h53.32v2.522h-1.16a2.881 2.881 0 00-2.879 2.878v3.67H20.847a1.464 1.464 0 100 2.927h14.072v5.249H30.5a5.352 5.352 0 00-5.346 5.346v3.162a2.442 2.442 0 002.439 2.439H72.3a2.442 2.442 0 002.439-2.439v-3.163a5.352 5.352 0 00-5.346-5.346H64.97V87.1h27.056a2.881 2.881 0 002.874-2.883v-.689a6.45 6.45 0 004.985-6.272L100 6.441A6.447 6.447 0 0093.559 0zM55.135 68.219V61.2h36.842v7.015zm4.038-9.943V55.2h28.765v3.079zm28.765 12.87v3.08H59.174v-3.08zM37.845 83.7h14.363v.521a2.881 2.881 0 002.878 2.879h6.957v1.85h-24.2zm31.544 8.176a2.421 2.421 0 012.419 2.419v2.674H28.08v-2.678a2.422 2.422 0 012.42-2.418zm22.588-7.7H55.135v-7.023h36.842zm4.985-6.912a3.515 3.515 0 01-2.062 3.185V77.1a2.882 2.882 0 00-2.879-2.878h-1.16V71.7h6.1zm0-8.479h-2.106c.03-.166.048-7.622.048-7.622a2.882 2.882 0 00-2.879-2.879h-1.16V55.2h1.16a2.882 2.882 0 002.875-2.881v-7.113a2.882 2.882 0 00-2.879-2.879h-8.262a1.464 1.464 0 000 2.927h8.218v7.016H55.135v-7.015h19.518a1.464 1.464 0 000-2.927H55.086a2.882 2.882 0 00-2.879 2.879v7.113a2.882 2.882 0 002.879 2.88h1.16v3.079h-1.16a2.882 2.882 0 00-2.879 2.879s.018 7.456.048 7.622H2.927V19.908h94.035zm0-51.8H3.034V6.441a3.518 3.518 0 013.515-3.514h86.9a3.518 3.518 0 013.514 3.514zm0 0" fill="#fff"/><path data-name="Контур 1592" d="M12.226 6.364a4.865 4.865 0 104.862 4.864 4.87 4.87 0 00-4.862-4.864zm0 6.414a1.55 1.55 0 111.55-1.55 1.551 1.551 0 01-1.55 1.55zm0 0" fill="#fff"/><path data-name="Контур 1593" d="M22.081 6.364a4.865 4.865 0 104.865 4.865 4.871 4.871 0 00-4.865-4.865zm0 6.414a1.55 1.55 0 111.55-1.55 1.551 1.551 0 01-1.55 1.55zm0 0" fill="#fff"/><path data-name="Контур 1594" d="M32.879 6.364a4.865 4.865 0 104.866 4.865 4.87 4.87 0 00-4.866-4.865zm0 6.414a1.55 1.55 0 111.55-1.55 1.552 1.552 0 01-1.55 1.55zm0 0" fill="#fff"/></svg></svg>