<svg xmlns="http://www.w3.org/2000/svg" width="30.289" height="30.967"><g data-name="Сгруппировать 340"><g data-name="Сгруппировать 339"><path data-name="Контур 1556" d="M23.977 4.683a14.629 14.629 0 00-3.4-4.566.454.454 0 00-.609.673 13.719 13.719 0 013.19 4.282.454.454 0 00.82-.389z" fill="#fff"/></g></g><g data-name="Сгруппировать 342"><g data-name="Сгруппировать 341"><path data-name="Контур 1557" d="M21.417 5.359a12.04 12.04 0 00-2.22-2.986.454.454 0 10-.636.647 11.128 11.128 0 012.053 2.761.454.454 0 10.8-.422z" fill="#fff"/></g></g><g data-name="Сгруппировать 344"><g data-name="Сгруппировать 343"><path data-name="Контур 1558" d="M4.048 19.281a13.715 13.715 0 01-3.184-4.282.454.454 0 00-.82.389 14.628 14.628 0 003.4 4.566.454.454 0 10.609-.673z" fill="#fff"/></g></g><g data-name="Сгруппировать 346"><g data-name="Сгруппировать 345"><path data-name="Контур 1559" d="M5.46 17.049a11.13 11.13 0 01-2.053-2.761.454.454 0 10-.8.422 12.041 12.041 0 002.22 2.986.454.454 0 00.636-.648z" fill="#fff"/></g></g><g data-name="Сгруппировать 348"><g data-name="Сгруппировать 347"><path data-name="Контур 1560" d="M29.889 22.489l-.808-1.087a7.56 7.56 0 00.3-3.105c-.2-1.679-.722-1.942-.888-2.909-.406-2.37.688-5.622.911-6.249l.017-.049c.478-1.51.793-2.508-.728-3.24-1.361-.655-2.793-.073-3.648 1.481a16.951 16.951 0 00-1.621 4.865l-5.6-7.53a.454.454 0 00-.728.541l6.265 8.426a.454.454 0 00.816-.228 15.943 15.943 0 011.663-5.637c.233-.424 1.1-1.755 2.46-1.1.859.413.7.653.249 2.166-.332.934-1.384 4.179-.951 6.707.208 1.213.692 1.284.881 2.864a6.354 6.354 0 01-.068 1.925 3.794 3.794 0 01-.822 1.573.455.455 0 00.7.58c.086-.1.165-.206.238-.307l.635.854a1.123 1.123 0 01-.231 1.569l-.954.71a.454.454 0 00.271.818c.256 0 .3-.144 1.225-.8a2.031 2.031 0 00.416-2.838z" fill="#fff"/></g></g><g data-name="Сгруппировать 350"><g data-name="Сгруппировать 349"><path data-name="Контур 1561" d="M26.909 26.673a.453.453 0 00-.635-.093l-4.38 3.257a1.135 1.135 0 01-1.586-.233 4.3 4.3 0 00-2.291-1.83 7.649 7.649 0 01-4.117-3.372.454.454 0 00-.728.541 8.487 8.487 0 004.587 3.7 3.485 3.485 0 011.821 1.5 2.043 2.043 0 002.855.42l4.38-3.257a.454.454 0 00.094-.633z" fill="#fff"/></g></g><g data-name="Сгруппировать 353"><g data-name="Сгруппировать 352"><g data-name="Сгруппировать 351"><path data-name="Контур 1564" d="M18.857 12.308l-5.959-8.015a1.412 1.412 0 01.4-2.049 1.441 1.441 0 011.888.4l.646.868a.454.454 0 00.728-.541l-.646-.868a2.326 2.326 0 00-4.118.733 2.322 2.322 0 00-4.028 1.163 2.3 2.3 0 00.319 1.59 2.326 2.326 0 00-1.877 3.73l.71.955a2.326 2.326 0 00-1.878 3.734l.835 1.123.014.019-.01-.014.013.017 6.016 8.087a.454.454 0 00.728-.541L5.77 13.465a1.415 1.415 0 011.252-2.277 1.394 1.394 0 01.991.563l4.128 5.552a.454.454 0 00.728-.541L6.933 8.778a1.436 1.436 0 01.185-1.94 1.411 1.411 0 012.057.225l5.6 7.534a.454.454 0 00.728-.541L8.926 5.208a1.411 1.411 0 01.321-2 1.443 1.443 0 011.97.346l6.912 9.3a.454.454 0 00.728-.541zM5.894 15.153z" fill="#fff"/></g></g></g></svg>